<mxfile host="app.diagrams.net" agent="Mozilla/5.0 (Windows NT 10.0; Win64; x64) AppleWebKit/537.36 (KHTML, like Gecko) Chrome/131.0.0.0 Safari/537.36" version="25.0.3">
  <diagram name="หน้า-1" id="v8S4D5SiF95TRW92XsBD">
    <mxGraphModel dx="1034" dy="446" grid="1" gridSize="10" guides="1" tooltips="1" connect="1" arrows="1" fold="1" page="1" pageScale="1" pageWidth="827" pageHeight="1169" math="0" shadow="0">
      <root>
        <mxCell id="0" />
        <mxCell id="1" parent="0" />
        <mxCell id="bbhJpUH_u_lzWdws395a-3" value="" style="edgeStyle=orthogonalEdgeStyle;rounded=0;orthogonalLoop=1;jettySize=auto;html=1;" edge="1" parent="1" source="bbhJpUH_u_lzWdws395a-1" target="bbhJpUH_u_lzWdws395a-2">
          <mxGeometry relative="1" as="geometry" />
        </mxCell>
        <mxCell id="bbhJpUH_u_lzWdws395a-1" value="start" style="strokeWidth=2;html=1;shape=mxgraph.flowchart.start_1;whiteSpace=wrap;" vertex="1" parent="1">
          <mxGeometry x="364" y="60" width="100" height="60" as="geometry" />
        </mxCell>
        <mxCell id="bbhJpUH_u_lzWdws395a-5" value="" style="edgeStyle=orthogonalEdgeStyle;rounded=0;orthogonalLoop=1;jettySize=auto;html=1;" edge="1" parent="1" source="bbhJpUH_u_lzWdws395a-2" target="bbhJpUH_u_lzWdws395a-4">
          <mxGeometry relative="1" as="geometry" />
        </mxCell>
        <mxCell id="bbhJpUH_u_lzWdws395a-2" value="กำหนดตัวแปร number และ i" style="whiteSpace=wrap;html=1;strokeWidth=2;" vertex="1" parent="1">
          <mxGeometry x="354" y="200" width="120" height="60" as="geometry" />
        </mxCell>
        <mxCell id="bbhJpUH_u_lzWdws395a-24" value="" style="edgeStyle=orthogonalEdgeStyle;rounded=0;orthogonalLoop=1;jettySize=auto;html=1;" edge="1" parent="1" source="bbhJpUH_u_lzWdws395a-4" target="bbhJpUH_u_lzWdws395a-23">
          <mxGeometry relative="1" as="geometry" />
        </mxCell>
        <mxCell id="bbhJpUH_u_lzWdws395a-4" value="รับค่าจากผู้ใช้" style="shape=parallelogram;perimeter=parallelogramPerimeter;whiteSpace=wrap;html=1;fixedSize=1;strokeWidth=2;" vertex="1" parent="1">
          <mxGeometry x="354" y="340" width="120" height="60" as="geometry" />
        </mxCell>
        <mxCell id="bbhJpUH_u_lzWdws395a-26" style="edgeStyle=orthogonalEdgeStyle;rounded=0;orthogonalLoop=1;jettySize=auto;html=1;exitX=0;exitY=0.5;exitDx=0;exitDy=0;entryX=0.5;entryY=0;entryDx=0;entryDy=0;" edge="1" parent="1" source="bbhJpUH_u_lzWdws395a-6" target="bbhJpUH_u_lzWdws395a-8">
          <mxGeometry relative="1" as="geometry" />
        </mxCell>
        <mxCell id="bbhJpUH_u_lzWdws395a-27" style="edgeStyle=orthogonalEdgeStyle;rounded=0;orthogonalLoop=1;jettySize=auto;html=1;exitX=1;exitY=0.5;exitDx=0;exitDy=0;entryX=0.5;entryY=0;entryDx=0;entryDy=0;" edge="1" parent="1" source="bbhJpUH_u_lzWdws395a-6" target="bbhJpUH_u_lzWdws395a-14">
          <mxGeometry relative="1" as="geometry" />
        </mxCell>
        <mxCell id="bbhJpUH_u_lzWdws395a-6" value="number % 2 = 0 ?" style="rhombus;whiteSpace=wrap;html=1;strokeWidth=2;" vertex="1" parent="1">
          <mxGeometry x="346" y="600" width="136" height="120" as="geometry" />
        </mxCell>
        <mxCell id="bbhJpUH_u_lzWdws395a-37" style="edgeStyle=orthogonalEdgeStyle;rounded=0;orthogonalLoop=1;jettySize=auto;html=1;exitX=0.5;exitY=1;exitDx=0;exitDy=0;" edge="1" parent="1" source="bbhJpUH_u_lzWdws395a-8" target="bbhJpUH_u_lzWdws395a-17">
          <mxGeometry relative="1" as="geometry" />
        </mxCell>
        <mxCell id="bbhJpUH_u_lzWdws395a-8" value="แสดง ( i ) Hello World" style="shape=parallelogram;perimeter=parallelogramPerimeter;whiteSpace=wrap;html=1;fixedSize=1;strokeWidth=2;" vertex="1" parent="1">
          <mxGeometry x="100" y="820" width="176" height="60" as="geometry" />
        </mxCell>
        <mxCell id="bbhJpUH_u_lzWdws395a-12" value="" style="edgeStyle=orthogonalEdgeStyle;rounded=0;orthogonalLoop=1;jettySize=auto;html=1;" edge="1" parent="1" target="bbhJpUH_u_lzWdws395a-6">
          <mxGeometry relative="1" as="geometry">
            <mxPoint x="414" y="540" as="sourcePoint" />
          </mxGeometry>
        </mxCell>
        <mxCell id="bbhJpUH_u_lzWdws395a-13" value="T" style="text;html=1;align=center;verticalAlign=middle;resizable=0;points=[];autosize=1;strokeColor=none;fillColor=none;" vertex="1" parent="1">
          <mxGeometry x="310" y="630" width="30" height="30" as="geometry" />
        </mxCell>
        <mxCell id="bbhJpUH_u_lzWdws395a-38" style="edgeStyle=orthogonalEdgeStyle;rounded=0;orthogonalLoop=1;jettySize=auto;html=1;exitX=0.5;exitY=1;exitDx=0;exitDy=0;entryX=1;entryY=0.55;entryDx=0;entryDy=0;entryPerimeter=0;" edge="1" parent="1" source="bbhJpUH_u_lzWdws395a-14" target="bbhJpUH_u_lzWdws395a-39">
          <mxGeometry relative="1" as="geometry">
            <mxPoint x="590" y="1030" as="targetPoint" />
            <Array as="points">
              <mxPoint x="635" y="970" />
            </Array>
          </mxGeometry>
        </mxCell>
        <mxCell id="bbhJpUH_u_lzWdws395a-14" value="แสดง [ i ] Hello World" style="shape=parallelogram;perimeter=parallelogramPerimeter;whiteSpace=wrap;html=1;fixedSize=1;strokeWidth=2;" vertex="1" parent="1">
          <mxGeometry x="550" y="820" width="170" height="60" as="geometry" />
        </mxCell>
        <mxCell id="bbhJpUH_u_lzWdws395a-16" value="F" style="text;html=1;align=center;verticalAlign=middle;resizable=0;points=[];autosize=1;strokeColor=none;fillColor=none;" vertex="1" parent="1">
          <mxGeometry x="485" y="628" width="30" height="30" as="geometry" />
        </mxCell>
        <mxCell id="bbhJpUH_u_lzWdws395a-40" style="edgeStyle=orthogonalEdgeStyle;rounded=0;orthogonalLoop=1;jettySize=auto;html=1;exitX=0.5;exitY=1;exitDx=0;exitDy=0;entryX=0.2;entryY=1;entryDx=0;entryDy=0;entryPerimeter=0;" edge="1" parent="1" source="bbhJpUH_u_lzWdws395a-17" target="bbhJpUH_u_lzWdws395a-41">
          <mxGeometry relative="1" as="geometry">
            <mxPoint x="80" y="450" as="targetPoint" />
            <Array as="points">
              <mxPoint x="413" y="1200" />
              <mxPoint x="80" y="1200" />
              <mxPoint x="80" y="420" />
            </Array>
          </mxGeometry>
        </mxCell>
        <mxCell id="bbhJpUH_u_lzWdws395a-17" value="i++" style="whiteSpace=wrap;html=1;strokeWidth=2;" vertex="1" parent="1">
          <mxGeometry x="353" y="1060" width="120" height="60" as="geometry" />
        </mxCell>
        <mxCell id="bbhJpUH_u_lzWdws395a-43" value="" style="edgeStyle=orthogonalEdgeStyle;rounded=0;orthogonalLoop=1;jettySize=auto;html=1;entryX=0.5;entryY=0;entryDx=0;entryDy=0;entryPerimeter=0;" edge="1" parent="1" source="bbhJpUH_u_lzWdws395a-23" target="bbhJpUH_u_lzWdws395a-44">
          <mxGeometry relative="1" as="geometry">
            <mxPoint x="570" y="505" as="targetPoint" />
            <Array as="points">
              <mxPoint x="750" y="505" />
              <mxPoint x="750" y="1350" />
              <mxPoint x="413" y="1350" />
            </Array>
          </mxGeometry>
        </mxCell>
        <mxCell id="bbhJpUH_u_lzWdws395a-23" value="i &amp;lt;= number ?" style="rhombus;whiteSpace=wrap;html=1;strokeWidth=2;" vertex="1" parent="1">
          <mxGeometry x="346" y="450" width="136" height="110" as="geometry" />
        </mxCell>
        <mxCell id="bbhJpUH_u_lzWdws395a-25" value="T" style="text;html=1;align=center;verticalAlign=middle;resizable=0;points=[];autosize=1;strokeColor=none;fillColor=none;" vertex="1" parent="1">
          <mxGeometry x="375" y="558" width="30" height="30" as="geometry" />
        </mxCell>
        <mxCell id="bbhJpUH_u_lzWdws395a-39" value="" style="shape=waypoint;sketch=0;fillStyle=solid;size=6;pointerEvents=1;points=[];fillColor=none;resizable=0;rotatable=0;perimeter=centerPerimeter;snapToPoint=1;" vertex="1" parent="1">
          <mxGeometry x="403" y="960" width="20" height="20" as="geometry" />
        </mxCell>
        <mxCell id="bbhJpUH_u_lzWdws395a-41" value="" style="shape=waypoint;sketch=0;fillStyle=solid;size=6;pointerEvents=1;points=[];fillColor=none;resizable=0;rotatable=0;perimeter=centerPerimeter;snapToPoint=1;" vertex="1" parent="1">
          <mxGeometry x="403" y="410" width="20" height="20" as="geometry" />
        </mxCell>
        <mxCell id="bbhJpUH_u_lzWdws395a-44" value="end" style="strokeWidth=2;html=1;shape=mxgraph.flowchart.start_1;whiteSpace=wrap;" vertex="1" parent="1">
          <mxGeometry x="363" y="1400" width="100" height="60" as="geometry" />
        </mxCell>
        <mxCell id="bbhJpUH_u_lzWdws395a-45" value="F" style="text;html=1;align=center;verticalAlign=middle;resizable=0;points=[];autosize=1;strokeColor=none;fillColor=none;" vertex="1" parent="1">
          <mxGeometry x="485" y="468" width="30" height="30" as="geometry" />
        </mxCell>
      </root>
    </mxGraphModel>
  </diagram>
</mxfile>
